<?xml version="1.0" encoding="UTF-8"?>
<svg id="Layer_1" xmlns="http://www.w3.org/2000/svg" version="1.1" viewBox="0 0 412 406.5">
  <!-- Generator: Adobe Illustrator 29.8.2, SVG Export Plug-In . SVG Version: 2.1.1 Build 3)  -->
  <defs>
    <style>
      .st0 {
        fill: none;
        stroke: #6d0f1e;
      }

      .st0, .st1 {
        stroke-miterlimit: 10;
        stroke-width: 2px;
      }

      .st1 {
        fill: #fff;
        stroke: #fff;
      }

      .st2 {
        fill: #6d0f1e;
      }
    </style>
  </defs>
  <g id="Production_-_color">
    <g>
      <circle class="st1" cx="206.5" cy="202.9" r="189.9"/>
      <circle class="st0" cx="206.5" cy="202.9" r="193.8" transform="translate(-83 205.4) rotate(-45)"/>
      <g>
        <path class="st2" d="M118.4,299.4c-1.2-1.1-2-1.6-2.5-1.6s-1.1.4-1.8,1.2l-13.4,15.3c1,1,1.6,1.7,1.9,2s.6.6.9.9c2.7,2.4,5.1,3.8,7.4,4.4,4,1.1,7.7-.3,11-4.1,3.1-3.6,3.7-7.4,1.8-11.4-1-2.2-2.8-4.4-5.3-6.6h0Z"/>
        <path class="st2" d="M254.8,56.3c4.5-.4,7.4-2.8,8.8-7.3,1.4-4.3.5-7.8-2.5-10.5-1.6-1.4-4-2.7-7.1-3.6-2.1-.7-3.4-.9-4-.8-.6.2-1,.8-1.4,1.9l-5.8,18.3c5.4,1.5,9.4,2.1,12,2Z"/>
        <path class="st2" d="M200.4,297c-.7,0-1.3.2-1.7.6s-.7,1-.7,1.6.3,1.3.8,1.9,1.2,1.2,2.1,1.7c.7-.5,1.2-.9,1.5-1.2.5-.6.7-1.3.7-2.1s-.2-1.3-.7-1.8c-.4-.5-1.1-.7-2-.7h0Z"/>
        <polygon class="st2" points="197.7 362.3 215.6 362 206.3 340.7 197.7 362.3"/>
        <path class="st2" d="M198.3,274.6c-.9,0-1.5.4-1.9,1.1-.2.4-.4.9-.5,1.5h4.7c0-.7-.2-1.3-.4-1.7-.4-.7-1-1-1.8-1h-.1Z"/>
        <path class="st2" d="M198.4,306.2c-.3.6-.4,1.3-.4,1.9,0,1,.3,1.8.8,2.4s1.2.9,2,.9,1.5-.2,1.9-.7.7-1.1.7-1.8-.2-1.5-.7-2-1.4-1.3-2.9-2.3c-.6.4-1.1.9-1.4,1.6h0Z"/>
        <path class="st2" d="M140.9,85.9c4.5,2.3,8.9,2.5,13.2.6,4.2-1.8,7-5.2,8.5-10s.5-11.1-2.9-18.7c-3.4-7.8-7.4-12.7-11.9-14.9-4.5-2.1-8.9-2.3-13-.5-4.3,1.9-7.1,5.3-8.5,10.1-1.4,4.9-.4,11.1,2.9,18.6,3.3,7.5,7.2,12.4,11.7,14.7h0Z"/>
        <path class="st2" d="M102.6,117.3c5,.5,9.2-.9,12.6-4.2,3.3-3.2,4.7-7.4,4.3-12.4-.4-5-3.5-10.5-9.4-16.5-6-6-11.5-9.2-16.5-9.6s-9.1,1.1-12.3,4.2c-3.3,3.3-4.7,7.5-4.3,12.5.5,5.1,3.6,10.5,9.4,16.3s11.2,9,16.2,9.5v.2Z"/>
        <path class="st2" d="M206.5,12.9C101.5,12.9,16.5,97.9,16.5,202.9s85.1,190,190,190,190-85.1,190-190S311.4,12.9,206.5,12.9ZM340.8,98.4c2.3-1.5,3.6-2.9,3.8-4.1.2-1.2-.4-3-1.8-5.5l1.2-.8,23,34.5-9.1,6.4-1.2-1.8c2.7-2.4,4-4.5,4-6.3s-1.2-4.4-3.7-8l-5.9-8.9c-.6-.9-1.1-1.3-1.6-1.4-.5,0-1.1.2-2,.8l-14.5,9.7,6.3,9.4c1.8,2.8,3.4,4.3,4.8,4.5,1.3.2,3.4-.3,6.2-1.5l1,1.5-15,10-1-1.5c2.2-2.2,3.4-3.9,3.7-5.2.3-1.3-.5-3.3-2.3-6.1l-6.3-9.4-14.2,9.5c-2.4,1.6-3.6,3-3.8,4.1-.2,1.2.5,3,1.9,5.6l-1.2.8-12.1-18.1,1.2-.8c2,2.4,3.5,3.6,4.6,3.8,1.1.2,3-.7,5.8-2.5l28.1-18.7h.1ZM275,87.4c.5-3.3,2.2-6.9,5.1-10.7l14.9-19.3c1.7-2.3,2.5-4,2.3-5.1-.2-1.2-1.4-2.7-3.6-4.7l.9-1.1,17.5,13.5-.9,1.1c-2.5-1.7-4.3-2.5-5.5-2.4-1.2,0-2.7,1.3-4.4,3.5l-15.2,19.7c-2.5,3.2-4,6.1-4.5,8.6-.9,4.6,1,8.6,5.6,12.2,5,3.9,9.7,4.8,14.1,2.8,2.4-1.1,5.1-3.7,8.2-7.6l12.4-16.1c2.6-3.4,3.8-5.8,3.7-7.2-.1-1.5-1.3-3.2-3.3-5.1l.9-1.1,14.3,11-.9,1.1c-2.6-1.6-4.6-2.2-6-1.9-1.4.3-3.4,2.1-5.9,5.3l-12.4,16.1c-3.3,4.3-6.5,7.1-9.6,8.5-5.8,2.5-12.1,1.2-18.8-4-6.7-5.1-9.5-10.8-8.6-17h-.3ZM227.2,74.1c1-.6,1.9-2.5,2.9-5.6l10.2-32.2c.8-2.6,1-4.4.4-5.5-.5-1.1-2.1-2.1-4.7-3.2l.4-1.4,20.6,6.5c4.3,1.4,7.7,3,10.2,5,4.8,3.8,6.3,8.4,4.5,13.9-1.2,3.7-3.3,6.2-6.3,7.4s-6.7,1.5-11.1.8l9.4,23.7c.6,1.4,1.3,2.6,2,3.4.8.8,1.9,1.5,3.3,2.2l-.4,1.4-12-3.8-11.4-28.8-3.3-.8-4.6,14.6c-.9,2.7-1,4.6-.4,5.6s2.3,2.1,5,3.2l-.4,1.4-20.6-6.5.4-1.4c2.9.6,4.9.6,5.9,0h0ZM192.1,26c7.1-.3,13.1.5,18.1,2.6,9,3.8,13.8,11,14.3,21.8.2,3.9-.4,7.6-1.8,11.2-1.4,3.6-3.7,6.6-6.7,9.2-2,1.6-4,2.9-6.1,3.8-3.9,1.7-8.8,2.6-14.6,2.9l-21.6,1v-1.4c2.8-.4,4.6-1,5.4-1.8.8-.8,1.2-2.6,1-5.5l-1.7-34.6c-.1-2.8-.6-4.6-1.5-5.4s-2.8-1.2-5.7-1.2v-1.4l20.9-1v-.2ZM120.2,53.2c2.5-6.1,7-10.6,13.4-13.4,6.4-2.8,12.8-3.1,19-.8,6.8,2.5,11.8,7.5,15.2,15.2s3.6,15,.7,21.7c-2.6,6-7.1,10.4-13.3,13.1-6.7,2.9-13.2,3.1-19.6.5-6.5-2.7-11.4-7.6-14.5-14.9-3.3-7.6-3.6-14.8-.9-21.5h0ZM79.3,76.9c5-4.9,10.8-7.5,17.5-7.6,7.2,0,13.7,2.8,19.6,8.7,6,6,8.8,12.7,8.5,20-.3,6.6-2.8,12.2-7.7,17.1-5.2,5.1-11.2,7.7-18.1,7.5-7,0-13.3-3-18.9-8.6s-8.7-12.5-8.5-19.7c.2-6.6,2.7-12.4,7.7-17.4h0ZM57.3,252.9c-5,0-9-4-9-9s4-9,9-9,9,4,9,9-4,9-9,9ZM66.2,171.4l-19.4-.4c-8-.2-13,0-15,.3-2,.4-3.4,1.6-4.4,3.7l-1.3-.5,6.9-17.8,1.3.5c-.5,1.5-.8,2.5-.8,3.2,0,1.2.5,2.1,1.6,2.5.5.2,1,.3,1.5.3h33.4l-17.4-15.5h-10.2c-1.9,0-3.3.5-4.3,1.6-.6.6-1.2,1.7-1.9,3.2l-1.3-.5,7.5-19.5,1.3.5c-.7,1.8-1,3.1-1.1,3.9,0,1.2.6,2.1,1.9,2.6.4.2.8.3,1.2.3h33.5l-21.2-18.6c-1.2-1.1-2.3-1.9-3.3-2.5-.6-.4-1-.6-1.4-.8-1.3-.5-2.5-.2-3.5.8s-1.2,1.6-1.8,3l-1.3-.5,5.6-14.4,1.3.5c-.3,1.4-.4,2.5-.3,3.3.2,1.5,1,2.9,2.5,4.1l18.7,16,7.2,6.2,11.3,9.7-.4,1.1h-9.5l-25.6-.2,26.4,23-.4,1.1-17.1-.4-.2.2ZM116.5,327.7c-4.5-.8-8.9-3.1-13.3-6.9-.6-.6-1.4-1.3-2.4-2.2-1-.9-1.7-1.5-2.2-2l-9.3,10.7c-1.9,2.2-2.8,3.9-2.6,5,.2,1.2,1.4,2.9,3.6,5.1l-1,1.1-16.4-14.4,1-1.1c2.4,1.7,4.2,2.5,5.3,2.3,1.1-.2,2.8-1.5,4.9-3.9l22.2-25.4c1.8-2,2.7-3.7,2.6-4.9,0-1.2-1.1-2.8-3-4.8l1-1.1,15.5,13.5c5,4.3,7.9,8.6,8.9,12.9.9,4.2,0,7.9-2.7,11.1-3.5,4-7.5,5.6-12,4.8v.2ZM158.8,376.8l-39-15.3.5-1.3c2.8.8,4.7,1,5.7.6,1.1-.4,2.1-1.9,3.2-4.6l12.7-32.3c1-2.6,1.3-4.4.8-5.5s-2-2.3-4.6-3.5l.5-1.3,20.5,8-.5,1.3c-2.7-.9-4.7-1.2-5.9-.8-1.2.4-2.3,1.8-3.2,4.2l-13.7,34.9c-.3.8-.4,1.5-.3,2.1,0,.6.6,1.1,1.5,1.6.5.3,1.1.6,1.7.8.6.3,1.7.7,3.4,1.4,6.5,2.5,11,3.7,13.7,3.5s6-2,9.8-5.6l1.8.7-8.5,11.2h0ZM216.4,382v-1.4c2.2-.2,3.7-.5,4.4-.8s1-1,1-2.2-.1-1-.4-2c-.3-1-.6-2-1.1-3l-3.2-7.4-20.5.3c-1.9,5.1-3.1,8.3-3.5,9.4s-.6,2-.5,2.7c0,1.3.6,2.2,1.6,2.7.7.3,1.9.5,3.7.6v1.4l-15.4.3v-1.4c2-.3,3.5-1,4.4-2.3,1-1.3,2.6-4.8,5-10.6l15.6-38.5h1.6l20.2,43.8c1.3,2.9,2.4,4.7,3.2,5.4.8.7,2.1,1.1,3.9,1.4v1.4l-19.8.3h-.2ZM190.9,311.2c.3.2.9.2,1.7.3v.3h-6.3v-.3c.9,0,1.5-.2,1.8-.4.3-.2.4-.6.4-1.3v-10.4c0-.4,0-.6-.1-.8,0-.2-.3-.3-.6-.3s-.4,0-.8.2c-.3.1-.6.2-.9.3v-.3l4.1-2.1h.1v13.6c0,.6.2.9.5,1.1h.1ZM197,281.8c.7.8,1.5,1.2,2.5,1.2s1.4-.2,2-.6c.5-.4,1-1,1.5-1.7h.4c-.3,1.1-.9,2-1.7,2.8s-1.9,1.2-3.1,1.2-2.5-.5-3.2-1.6c-.8-1.1-1.1-2.3-1.1-3.7s.4-2.8,1.3-3.9c.9-1.1,2-1.6,3.5-1.6s2,.4,2.8,1.1,1.2,1.8,1.2,3.1h-7.1c0,1.7.5,3,1.2,3.8h-.2ZM204.3,305.8c.5.7.8,1.5.8,2.5s-.4,2-1.2,2.7-1.9,1.1-3.2,1.1-2.3-.3-3.1-1c-.9-.7-1.3-1.6-1.3-2.7s.3-1.8.9-2.5c.4-.5,1.1-1,2.1-1.7-1-.8-1.7-1.4-2-1.9-.6-.7-.8-1.5-.8-2.4s.4-1.8,1.2-2.5,1.9-1,3.2-1,2.2.3,2.9,1c.7.6,1.1,1.4,1.1,2.3s-.4,1.7-1.1,2.3c-.4.4-1.1.9-2,1.4,1.3.9,2.2,1.8,2.7,2.5h-.2ZM208,277.7l1.5.8c1.6.9,2.4,1.9,2.4,3s-.3,1.6-1,2.2-1.5.8-2.6.8-1,0-1.5-.2c-.6-.1-.9-.2-1-.2h-.2s-.1.1-.2.2h-.3v-3.6h.4c.2.9.4,1.5.7,2,.5.8,1.3,1.3,2.3,1.3s1-.2,1.3-.5.5-.7.5-1.2,0-.6-.3-.9c-.2-.3-.5-.6-1-.9l-1.3-.7c-.9-.5-1.6-1-2-1.5s-.6-1.1-.6-1.8.3-1.5.9-2.1c.6-.5,1.3-.8,2.2-.8s.8,0,1.3.2c.5.1.7.2.8.2h.3s.1,0,.2-.2h.3v3.1h-.3c-.1-.7-.4-1.3-.6-1.7-.5-.7-1.1-1.1-2-1.1s-.9.2-1.2.5-.4.7-.4,1.1c0,.7.5,1.3,1.5,1.8v.2ZM218.7,274v.8h-2.3v6.4c0,.6,0,1,.1,1.3.2.5.5.8,1.1.8s.5,0,.7-.2c.2-.1.4-.3.7-.6l.3.2-.2.3c-.4.5-.8.9-1.2,1.1s-.9.3-1.3.3c-.9,0-1.5-.4-1.8-1.2-.2-.4-.3-1-.3-1.8v-6.8h-1.2v-.2s.1-.1.3-.3c.5-.4.9-.8,1.1-1,.2-.3.8-1,1.6-2.1h.2v3h2.3-.1ZM223.4,296.4c1.3,0,2.3.4,3.1,1.2.8.8,1.2,1.8,1.2,2.9s-.4,2.4-1.3,3.5c-.8,1.1-2.7,3.1-5.5,6h5.1c.7,0,1.2,0,1.5-.3.3-.2.6-.6,1-1.3h.3c0,.1-1.2,3.3-1.2,3.3h-8.9v-.3c2.7-2.8,4.6-4.9,5.6-6.2,1-1.3,1.5-2.6,1.5-3.9s-.3-1.9-.9-2.5c-.6-.6-1.3-.9-2.1-.9s-1.8.4-2.5,1.1c-.4.4-.7,1-1,1.9h-.5c.4-1.8,1-3,1.9-3.7s1.8-1,2.9-1l-.2.2ZM221.7,283.3c0-.4.1-.6.4-.9.2-.2.5-.4.9-.4s.6.1.9.4c.2.2.4.5.4.9s-.1.7-.4.9c-.2.2-.5.4-.9.4s-.7-.1-.9-.4c-.2-.2-.4-.5-.4-.9ZM216.7,296.6v.4l-4.9,15h-1.5l4.5-13.7h-4.9c-.7,0-1.2.1-1.6.4-.3.2-.7.7-1.2,1.5l-.4-.2c.5-1.2.8-1.9.9-2.2s.3-.7.5-1.2h8.6ZM233.9,284.1c-1.5-3,2.5-5.7,2.5-8.4s-3.9-3-3.9-3v-2.8h-7.9s2.4-3,1.6-4.1c-.8-1.1-3.7-3.7-3.7-3.7v-2.7l-7.1-1.8s3.2-3.4,4-6.5c.8-3-3.7-9.1-3.7-11.8s3.1-7.4,3.1-7.4l.8-3.9h-3.9s-.6-4.4,3.2-5.2,23.6-1.1,27-4.9c3.4-3.8,3.4-5.7,5.7-6.8s6.5-2.3,6.5-2.3c0,0-1-4.9-6.7-4.9s-28.8-1.9-28.8-1.9v-6.8l-2-1.9v-2.9l-3-2.2s-1.1-1.5-2.4-1.5-2.2-3.5.2-3.9c2.5-.4,3.8-2.8,3.8-2.8h-5s3.1-1.7,3.1-4.7-2.9-2.3-3.2-5.3.3-4.2,0-9.1c-.3-5,1.6-5.2,1.6-5.2l-4.2-3.6h-3s1.9-3.2,3.4-3.2,6.9-1.2,9.9-2-1.1-2.7,2.3-4.6c3.4-1.9,5-2.3,5-2.3,0,0-.8-1.9-5.3-1.9h-11.9v-3.9c.1,0-1.4-2.3-1.4-2.3,0,0,2.3.4,1.5-5.3s-3.4-2.7-3.4-2.7l3.8-6.5s1.1-1.1-.8-1.9c-1.9-.8-3.1,0-3.1,0l-2-1.9-1.9,1.9s-1.1-.8-3,0-.8,1.9-.8,1.9l3.8,6.5s-2.7-3-3.4,2.7c-.8,5.7,1.5,5.3,1.5,5.3l-1.5,2.3v3.9c.1,0-7.2,0-11.8,0s-5.3,1.9-5.3,1.9c0,0,1.5.4,5,2.3,3.4,1.9-.8,3.8,2.3,4.6,3,.8,8.4,2,9.9,2s3.4,3.2,3.4,3.2h-3l-4.2,3.6s1.9.2,1.6,5.2c-.3,5,.3,6.1,0,9.1s-3.2,2.3-3.2,5.3,3.1,4.7,3.1,4.7h-5s1.1,2.4,3.5,2.8c2.5.4,1.3,3.9,0,3.9s-3,1.5-3,1.5l-4,2.2v2.9l-2,1.9v6.8s-22,1.9-27.7,1.9-5.6,4.9-5.6,4.9c0,0,4.2,1.1,6.5,2.3,2.3,1.1,2.3,3,5.7,6.8s23.2,4.1,27,4.9c3.8.8,3.2,5.2,3.2,5.2h-3.9l.7,3.9s3,4.7,3,7.4-4.8,8.8-4,11.8,3.4,6.5,3.4,6.5l-8.2,1.8v2.7s-1.8,2.6-2.6,3.7,2.7,4.1,2.7,4.1h-8.1v2.8s-3.9.4-3.9,3,4,5.3,2.5,8.4c-1.5,3-8,2.3-9.9,2.3s-7.6,2.3-6.8,7.2c.8,5,0,8.4,0,8.4l-1.4,1.3c-38.5-17.2-65.3-55.9-65.3-100.7s49.4-110.3,110.3-110.3,110.3,49.4,110.3,110.3-26.5,83.1-64.7,100.5l-1.1-1s-.7-3.4,0-8.4c.8-5-4.9-7.2-6.8-7.2s-8.4.8-9.9-2.3h0ZM293.7,357.1c-2.9,4.3-6.6,7.5-11.3,9.6-7.6,3.4-14.8,3.7-21.5.8-6.2-2.7-10.7-7.4-13.8-14.2-3.1-6.9-3.5-13.7-1.2-20.4,2.4-7,7.3-12.1,14.7-15.4,2.6-1.1,5.4-1.9,8.4-2.4,3.1-.4,4.7-.7,5.1-.9.7-.3,1.2-.8,1.7-1.4.4-.6.6-1.4.5-2.3l1.5-.7,7.8,15.7-1.6.7c-2.4-2.8-4.7-4.8-7.1-6-4.5-2.4-9.3-2.4-14.2-.3-5,2.2-8.2,6-9.6,11.3-1.4,5.3-.6,11.5,2.5,18.4,2.8,6.4,6.7,10.7,11.8,13,5,2.3,10.1,2.3,15.2,0,3.7-1.6,6.7-4,9-7.2,1.3-1.8,2.6-4.2,3.9-7.1l1.9.7c-.7,2.7-1.9,5.3-3.5,7.9l-.2.2ZM318.4,344.8l-1-1c1.8-2.3,2.7-3.9,2.8-5.1,0-1.1-.9-2.7-3-4.7l-24.8-24.3c-2-1.9-3.6-2.9-4.8-2.9s-2.9,1-5,2.9l-1-1,29-29.6,8.2,7.6-1.4,1.4c-2.9-1.9-5.2-2.8-6.8-2.5-1.6.2-4.1,2-7.3,5.2l-7.4,7.6c-.8.8-1.2,1.5-1.1,1.9,0,.4.5,1,1.2,1.7l12.4,12.2,8.4-8.6c2.3-2.4,3.5-4.2,3.4-5.6,0-1.3-1-3.3-2.7-5.8l1.3-1.3,12.9,12.6-1.3,1.3c-2.6-1.7-4.5-2.6-5.9-2.6s-3.2,1.1-5.5,3.5l-8.4,8.6,13.8,13.5c1.1,1.1,2.1,1.4,3,.9s3-2.5,6.4-6c3.7-3.8,6-7,7-9.6.9-2.6.5-6.2-1.3-10.7l1.5-1.5,6.9,11.7-29.5,30.1h0ZM355.3,252.9c-5,0-9-4-9-9s4-9,9-9,9,4,9,9-4,9-9,9ZM372.5,172c3.2-1.6,5.1-3.2,5.5-4.9.5-1.7,0-4.6-1.3-8.7l-3.3-10.2c-.3-1-.7-1.6-1.1-1.7-.4-.2-1.1,0-2.1.2l-16.6,5.3,3.5,10.8c1,3.2,2.1,5,3.3,5.6,1.2.6,3.3.7,6.4.3l.6,1.7-17.1,5.5-.6-1.7c2.7-1.5,4.4-2.8,5-4,.7-1.2.5-3.3-.5-6.5l-3.5-10.8-16.2,5.2c-2.7.9-4.3,1.8-4.8,2.9-.5,1.1-.4,3,.3,5.9l-1.4.4-6.7-20.8,1.4-.4c1.2,2.8,2.4,4.5,3.4,4.9,1,.5,3.1.2,6.3-.8l32.1-10.3c2.6-.8,4.2-1.8,4.8-2.9.6-1.1.5-3-.2-5.8l1.4-.4,12.7,39.5-10.5,3.7-.7-2.1h0Z"/>
        <path class="st2" d="M189.1,74.3c.6.4,1.9.5,3.9.4,6.1-.3,11-1.7,14.8-4.3,5.9-4,8.6-10.5,8.1-19.4-.4-8-3.2-13.9-8.3-17.7-4.4-3.2-10.1-4.7-17.2-4.4-1.7,0-2.9.3-3.5.7-.6.4-.9,1.3-.8,2.6l1.9,39.6c0,1.3.4,2.1,1.1,2.5Z"/>
      </g>
    </g>
  </g>
</svg>